<?xml version="1.0" encoding="utf-8"?>
<!DOCTYPE svg PUBLIC "-//W3C//DTD SVG 1.0//EN" "http://www.w3.org/TR/2001/REC-SVG-20010904/DTD/svg10.dtd">
<svg version="1.0" id="Layer_1" xmlns="http://www.w3.org/2000/svg" xmlns:xlink="http://www.w3.org/1999/xlink" x="0px" y="0px"
	 viewBox="0 0 40 40" enable-background="new 0 0 40 40" xml:space="preserve">
<circle fill-rule="evenodd" clip-rule="evenodd" fill="#5E7991" cx="20" cy="20" r="20"/>
<path fill-rule="evenodd" clip-rule="evenodd" fill="#FFFFFF" d="M13.9,12c-1.1,0-1.9,0.9-1.9,1.9c0,1.1,0.9,1.9,1.9,1.9
	c1.1,0,1.9-0.9,1.9-1.9C15.8,12.9,15,12,13.9,12z M12.3,28h3.3V17.3h-3.3V28z M28,22.1V28h-3.3v-5.2c0-1.2,0-2.8-1.7-2.8
	c-1.7,0-2,1.3-2,2.7V28h-3.3V17.3h3.2v1.5h0c0.4-0.8,1.5-1.7,3.1-1.7C27.4,17.1,28,19.3,28,22.1z"/>
</svg>
