<?xml version="1.0" encoding="utf-8"?>
<!-- Generator: Adobe Illustrator 17.1.0, SVG Export Plug-In . SVG Version: 6.00 Build 0)  -->
<!DOCTYPE svg PUBLIC "-//W3C//DTD SVG 1.1//EN" "http://www.w3.org/Graphics/SVG/1.1/DTD/svg11.dtd">
<svg version="1.1" id="Layer_1" xmlns="http://www.w3.org/2000/svg" xmlns:xlink="http://www.w3.org/1999/xlink" x="0px" y="0px"
	 viewBox="0 0 16 16" enable-background="new 0 0 16 16" xml:space="preserve">
<g>
	<path fill="#FFFFFF" d="M14.5,2.3L8.8,8l5.6,5.6c0.3,0.3,0.3,0.5,0,0.8c-0.1,0.1-0.3,0.1-0.4,0.1s-0.3,0-0.4-0.1L8,8.8l-5.7,5.7
		c-0.1,0-0.3,0.1-0.4,0.1s-0.3,0-0.4-0.1c-0.3-0.3-0.3-0.5,0-0.8L7.2,8L1.7,2.4c-0.3-0.3-0.3-0.5,0-0.8s0.5-0.3,0.8,0L8,7.2l5.7-5.7
		c0.3-0.3,0.5-0.3,0.8,0C14.7,1.7,14.7,2,14.5,2.3z"/>
</g>
</svg>
