<svg version="1.0" id="Layer_1" xmlns="http://www.w3.org/2000/svg" xmlns:xlink="http://www.w3.org/1999/xlink" x="0px" y="0px"
	 viewBox="0 0 177.5 28" enable-background="new 0 0 177.5 28" xml:space="preserve">
<path fill-rule="evenodd" clip-rule="evenodd" fill="#414B6B" d="M165.5,9.8v16.4h5v-5.4c0-3.6,1-6.5,3.9-6.5c0.5,0,0.9,0.1,1.2,0.2
	l0.6-4.8c-0.5-0.2-1.1-0.3-1.6-0.3c-1.8,0-3.4,0.9-4.4,3.1l0-2.7H165.5z M151.6,16h5c0-1.9-0.4-3-2.3-3
	C152.2,13,151.7,14.2,151.6,16z M158.7,20.9l2.5,2.9c-1.8,1.9-4.1,2.7-7,2.7c-2.3,0-4.1-0.6-5.3-1.7c-1.4-1.3-2.2-3.3-2.2-6.6
	c0-2.7,0.5-5.2,2.2-6.9c1.2-1.2,2.9-2.1,5.6-2.1c5.3,0,7,3.4,7,7.9c0,0.6,0,1.2-0.1,1.9l-9.7,0.1c0,2.1,0.4,3.4,2.8,3.4
	C156.1,22.7,157.5,22,158.7,20.9z M134.3,22.3c0.8,0,1.4-0.5,2.1-1.2c0.9-1.1,1.4-2.5,1.4-4.2c0-1.2-0.3-2-0.8-2.6
	c-0.5-0.5-1.1-0.7-1.9-0.7c-2,0-2.3,1.4-2.3,4.4C132.7,21.2,133.1,22.3,134.3,22.3z M137.6,1.6h5.1v24.6h-4.7l-0.1-2.2
	c-1.1,1.7-2.8,2.6-4.8,2.6c-1.5,0-2.8-0.5-3.7-1.6c-1.3-1.4-1.9-3.6-1.9-6.9c0-3.2,0.6-5.5,2.2-7c1.1-1,2.5-1.7,4.6-1.7
	c1.4,0,2.5,0.3,3.4,1.2V1.6z M109.1,9.8v16.4h5.1v-6.6c0-3.8,1.4-5.6,3.1-5.6c1,0,1.2,0.7,1.2,2v10.2h5.1v-11c0-3.7-1.6-5.9-4.8-5.9
	c-2.3,0-3.9,1.1-4.9,2.9V9.8H109.1z M98.9,4.4c0,1.7,1.3,3,3,3c1.7,0,3-1.3,3-3c0-1.7-1.3-3-3-3C100.2,1.3,98.9,2.7,98.9,4.4z
	 M99.3,9.8v16.4h5.1V9.8H99.3z M82.2,4v22.2h5.2v-8.4h7.4v-4.6h-7.4V8.6h8.1V4H82.2z M62.1,22.3c0.8,0,1.4-0.5,2.1-1.2
	c0.9-1.1,1.4-2.5,1.4-4.2c0-1.2-0.3-2-0.8-2.6c-0.5-0.5-1.1-0.7-1.9-0.7c-2,0-2.3,1.4-2.3,4.4C60.5,21.2,60.9,22.3,62.1,22.3z
	 M65.3,1.6h5.1v24.6h-4.7L65.6,24c-1.1,1.7-2.8,2.6-4.8,2.6c-1.5,0-2.8-0.5-3.7-1.6c-1.3-1.4-1.9-3.6-1.9-6.9c0-3.2,0.6-5.5,2.2-7
	c1.1-1,2.5-1.7,4.6-1.7c1.4,0,2.5,0.3,3.4,1.2V1.6z M42.9,9.8v16.4h5v-5.4c0-3.6,1-6.5,3.9-6.5c0.5,0,0.9,0.1,1.2,0.2l0.6-4.8
	c-0.5-0.2-1.1-0.3-1.6-0.3c-1.8,0-3.4,0.9-4.4,3.1l0-2.7H42.9z M29,16h5c0-1.9-0.4-3-2.3-3C29.6,13,29.1,14.2,29,16z M36,20.9
	l2.5,2.9c-1.8,1.9-4.1,2.7-7,2.7c-2.3,0-4.1-0.6-5.3-1.7c-1.4-1.3-2.2-3.3-2.2-6.6c0-2.7,0.5-5.2,2.2-6.9c1.2-1.2,2.9-2.1,5.6-2.1
	c5.3,0,7,3.4,7,7.9c0,0.6,0,1.2-0.1,1.9l-9.7,0.1c0,2.1,0.4,3.4,2.8,3.4C33.4,22.7,34.8,22,36,20.9z M1.3,4v22.2h5L6.1,11l7.1,15.2
	h6.6V4h-5l0.2,15.2L7.9,4H1.3z"/>
</svg>
